<?xml version="1.0" standalone="no"?>
<!DOCTYPE svg PUBLIC "-//W3C//DTD SVG 20010904//EN"
 "http://www.w3.org/TR/2001/REC-SVG-20010904/DTD/svg10.dtd">
<svg version="1.0" xmlns="http://www.w3.org/2000/svg"
 width="512.000000pt" height="512.000000pt" viewBox="0 0 512.000000 512.000000"
 preserveAspectRatio="xMidYMid meet">

<g transform="translate(0.000000,512.000000) scale(0.100000,-0.100000)"
fill="#000000" stroke="none">
<path d="M1343 5105 c-62 -27 -61 -18 -66 -601 -3 -492 -5 -535 -25 -622 -53
-236 -120 -382 -302 -657 -73 -110 -139 -214 -146 -232 -12 -27 -14 -285 -14
-1475 0 -1292 2 -1446 16 -1466 38 -55 -69 -52 1754 -52 1472 0 1685 2 1710
15 64 33 60 -27 60 935 l0 877 -23 21 c-33 31 -80 29 -106 -4 -20 -25 -21 -39
-21 -250 l0 -224 -1230 0 -1231 0 -24 -25 c-30 -30 -32 -64 -4 -99 l20 -26
1235 0 1234 0 0 -220 0 -220 -1620 0 -1620 0 0 220 0 220 243 0 c265 0 279 3
290 57 6 30 -7 61 -32 80 -12 9 -84 12 -258 13 l-243 0 0 784 0 784 141 213
c153 232 210 340 265 504 75 225 77 241 81 808 l4 507 190 0 189 0 0 -233 c0
-231 0 -234 23 -255 33 -31 80 -29 106 4 20 25 21 39 21 230 0 112 1 204 3
204 1 0 42 -16 91 -35 48 -19 136 -47 195 -62 98 -26 121 -28 296 -28 216 0
289 11 470 74 61 21 118 41 128 46 16 7 17 -11 17 -291 0 -343 -7 -393 -69
-520 -67 -135 -193 -245 -339 -296 -56 -19 -87 -23 -192 -23 -105 0 -136 4
-193 24 -94 32 -207 110 -266 183 -49 61 -111 174 -111 204 0 23 -55 74 -80
74 -12 0 -35 -14 -52 -30 -34 -34 -33 -54 5 -145 95 -226 285 -390 522 -450
90 -23 255 -24 347 -2 229 55 430 226 521 443 50 118 57 185 57 549 l0 335
189 0 190 0 4 -512 c3 -484 5 -519 26 -611 55 -248 133 -417 325 -707 l136
-205 0 -405 c0 -433 0 -433 50 -460 23 -12 77 5 90 30 6 11 10 184 10 440 0
331 -3 427 -14 453 -7 18 -73 122 -146 232 -182 275 -249 421 -302 657 -20 87
-22 130 -25 622 -4 445 -7 534 -19 559 -27 52 -57 57 -344 57 l-260 0 -68 -34
c-196 -98 -389 -146 -590 -146 -200 0 -361 38 -567 134 l-98 46 -261 0 c-200
-1 -268 -4 -293 -15z m2695 -4482 l142 -6 0 -234 0 -233 -1620 0 -1620 0 0
240 0 240 1478 0 c812 0 1541 -3 1620 -7z"/>
<path d="M2183 2948 c-32 -34 -433 -831 -433 -860 0 -54 17 -58 253 -58 l217
0 0 -118 c0 -106 2 -121 20 -137 27 -24 98 -25 133 -2 27 17 27 18 27 137 l0
120 48 0 c53 0 64 5 81 37 16 30 14 75 -5 101 -12 18 -25 22 -70 22 l-54 0 0
125 c0 112 -2 127 -20 145 -25 25 -105 27 -138 4 -21 -14 -22 -22 -22 -145 l0
-129 -120 0 c-66 0 -120 3 -120 6 0 3 79 160 175 349 96 188 175 350 175 359
0 10 -11 28 -25 41 -32 33 -93 34 -122 3z"/>
<path d="M2690 2948 c-8 -20 -50 -462 -50 -529 0 -14 6 -34 14 -45 13 -17 31
-19 198 -24 169 -5 186 -7 220 -28 56 -35 78 -90 78 -193 -1 -135 -40 -197
-140 -218 -33 -7 -66 -7 -102 -1 -91 18 -134 57 -144 133 -8 59 -31 77 -95 77
-39 0 -51 -5 -68 -26 -25 -32 -26 -63 -6 -131 44 -148 236 -243 432 -214 136
20 219 76 270 179 27 54 28 64 28 197 0 128 -2 144 -24 189 -33 65 -82 113
-150 145 -51 23 -70 26 -200 29 l-143 4 6 51 c3 29 9 100 12 160 l7 107 198 0
c186 0 200 1 219 20 14 14 20 33 20 63 0 77 2 77 -304 77 l-266 0 -10 -22z"/>
</g>
</svg>
